<svg width="32" height="32" viewBox="0 0 32 32" fill="none" xmlns="http://www.w3.org/2000/svg">
<path fill-rule="evenodd" clip-rule="evenodd" d="M25.456 12.2887C25.3857 10.8468 25.0469 9.56956 23.9602 8.51724C22.8777 7.46491 21.5638 7.13556 20.0804 7.06326C18.5516 6.97891 13.9694 6.97891 12.4406 7.06326C10.9614 7.13154 9.64749 7.46089 8.56081 8.51322C7.47413 9.56555 7.13945 10.8428 7.06508 12.2847C6.97831 13.7708 6.97831 18.2251 7.06508 19.7113C7.13532 21.1532 7.47413 22.4304 8.56081 23.4828C9.64749 24.5351 10.9573 24.8644 12.4406 24.9367C13.9694 25.0211 18.5516 25.0211 20.0804 24.9367C21.5638 24.8685 22.8777 24.5391 23.9602 23.4828C25.0428 22.4304 25.3816 21.1532 25.456 19.7113C25.5427 18.2251 25.5427 13.7749 25.456 12.2887ZM21.2044 12.2729C21.8159 12.2729 22.3118 11.7949 22.3118 11.1965C22.3118 10.602 21.8159 10.12 21.2044 10.12C20.5929 10.12 20.0971 10.602 20.0971 11.1965C20.0971 11.7909 20.5888 12.2729 21.2044 12.2729ZM16.2626 11.3853C13.6348 11.3853 11.5151 13.4457 11.5151 16.0002C11.5151 18.5547 13.6348 20.6152 16.2626 20.6152C18.8905 20.6152 21.0101 18.5547 21.0101 16.0002C21.0101 13.4457 18.8905 11.3853 16.2626 11.3853ZM16.2625 19.0008C14.5643 19.0008 13.176 17.6552 13.176 16.0004C13.176 14.3456 14.5602 13.0001 16.2625 13.0001C17.9648 13.0001 19.349 14.3456 19.349 16.0004C19.349 17.6552 17.9607 19.0008 16.2625 19.0008ZM21.7212 23.0172C22.5351 22.6999 23.159 22.0934 23.4813 21.3061C23.896 20.2933 23.8729 18.0778 23.8579 16.6416C23.8555 16.4034 23.8532 16.1866 23.8532 16.0003C23.8532 15.814 23.8555 15.5973 23.8579 15.3591C23.8729 13.9237 23.896 11.7108 23.4813 10.6945C23.1549 9.90327 22.531 9.29678 21.7212 8.98349C20.676 8.58261 18.3858 8.60396 16.9088 8.61773C16.6692 8.61997 16.451 8.622 16.263 8.622C16.0713 8.622 15.8483 8.61981 15.6033 8.61739C14.1267 8.60285 11.8502 8.58043 10.8048 8.98349C9.99082 9.30079 9.36691 9.90729 9.04462 10.6945C8.63223 11.7105 8.6542 13.9368 8.66837 15.3725C8.67066 15.6055 8.67276 15.8176 8.67276 16.0003C8.67276 16.1867 8.6705 16.4034 8.66802 16.6416C8.65305 18.077 8.62999 20.2899 9.04462 21.3061C9.37104 22.0974 9.99495 22.7039 10.8048 23.0172C11.85 23.4181 14.1402 23.3967 15.6171 23.3829C15.8568 23.3807 16.075 23.3787 16.263 23.3787C16.4547 23.3787 16.6776 23.3809 16.9226 23.3833C18.3992 23.3978 20.6757 23.4202 21.7212 23.0172Z" fill="black"/>
</svg>
