<svg width="32" height="32" viewBox="0 0 32 32" fill="none" xmlns="http://www.w3.org/2000/svg">
<path fill-rule="evenodd" clip-rule="evenodd" d="M11.6393 9.07084C11.6476 9.66021 11.4366 10.1527 11.0061 10.5483C10.5756 10.9439 10.0093 11.1417 9.3071 11.1417H9.28202C8.59658 11.1417 8.04488 10.9439 7.62693 10.5483C7.20898 10.1527 7 9.66021 7 9.07084C7 8.47341 7.21525 7.97891 7.64574 7.58734C8.07623 7.19578 8.63837 7 9.33218 7C10.026 7 10.5819 7.19578 10.9998 7.58734C11.4178 7.97891 11.6309 8.47341 11.6393 9.07084ZM11.376 12.7764V24.7776H7.23822V12.7764H11.376ZM26.259 24.7778V17.8992C26.259 16.1311 25.8243 14.7889 24.955 13.8726C24.0856 12.9562 22.9363 12.498 21.5069 12.498C20.9803 12.498 20.5017 12.5606 20.0712 12.6858C19.6407 12.8109 19.2771 12.9865 18.9804 13.2125C18.6836 13.4386 18.4475 13.6485 18.2719 13.8423C18.1051 14.0264 17.9421 14.2396 17.7829 14.482V12.7766H13.6577L13.6703 13.3579C13.6786 13.7454 13.6828 14.9403 13.6828 16.9425C13.6828 18.9447 13.6744 21.5565 13.6577 24.7778H17.7829V18.0808C17.7829 17.6691 17.8289 17.3421 17.9208 17.0999C18.0964 16.6882 18.3618 16.343 18.717 16.0645C19.0723 15.786 19.5132 15.6467 20.0399 15.6467C20.7587 15.6467 21.2875 15.8869 21.626 16.3673C21.9645 16.8476 22.1338 17.5117 22.1338 18.3594V24.7778H26.259Z" fill="black"/>
</svg>
