<svg viewBox="0 0 155 14" fill="none" xmlns="http://www.w3.org/2000/svg">
<g clip-path="url(#clip0)">
<path d="M19.3999 2.99011V1.11011H28.8399V2.99011H25.1399V12.7101H23.0799V2.99011H19.3999Z" fill="black"/>
<path d="M42.76 6.65991C42.76 7.50991 42.95 8.25991 43.33 8.90991C43.71 9.55991 44.21 10.0599 44.83 10.4099C45.46 10.7599 46.15 10.9299 46.89 10.9299C47.74 10.9299 48.48 10.7699 49.1 10.4499C49.73 10.1199 50.26 9.69991 50.67 9.20991V11.6499C50.17 12.0599 49.63 12.3799 49.03 12.5999C48.44 12.8199 47.7 12.9299 46.82 12.9299C45.93 12.9299 45.11 12.7799 44.35 12.4799C43.59 12.1699 42.92 11.7399 42.34 11.1799C41.78 10.6299 41.33 9.96991 41.01 9.20991C40.7 8.43991 40.54 7.58991 40.54 6.66991C40.54 5.74991 40.7 4.90991 41.01 4.14991C41.33 3.37991 41.78 2.71991 42.34 2.15991C42.92 1.60991 43.58 1.17991 44.35 0.879912C45.11 0.569912 45.93 0.409912 46.82 0.409912C47.71 0.409912 48.44 0.519912 49.03 0.739912C49.63 0.959912 50.18 1.27991 50.67 1.68991V4.12991C50.26 3.62991 49.73 3.22991 49.1 2.89991C48.48 2.56991 47.74 2.39991 46.89 2.39991C46.15 2.39991 45.47 2.57991 44.83 2.93991C44.21 3.28991 43.71 3.77991 43.33 4.42991C42.95 5.03991 42.76 5.78991 42.76 6.65991Z" fill="black"/>
<path d="M53.47 0.610107H55.51V5.28011H61.6V0.610107H63.64V12.7101H61.6V7.16011H55.51V12.7101H53.47V0.610107Z" fill="black"/>
<path d="M75.4401 0.61H77.4501V13.32L68.6201 4.59V12.72H66.6001V0L75.4301 8.73V0.61H75.4401Z" fill="black"/>
<path d="M79.71 6.6599C79.71 5.7599 79.87 4.9299 80.18 4.1699C80.49 3.3999 80.93 2.7399 81.49 2.1799C82.07 1.6199 82.73 1.1799 83.5 0.869902C84.26 0.559902 85.09 0.399902 85.99 0.399902C86.89 0.399902 87.72 0.559902 88.48 0.869902C89.25 1.1799 89.92 1.6199 90.49 2.1799C91.07 2.7299 91.51 3.3999 91.82 4.1699C92.13 4.9299 92.29 5.7599 92.29 6.6599C92.29 7.5599 92.13 8.3899 91.82 9.1699C91.51 9.9299 91.07 10.5999 90.51 11.1799C89.95 11.7399 89.28 12.1899 88.5 12.5099C87.74 12.8199 86.9 12.9799 85.99 12.9799C85.08 12.9799 84.24 12.8199 83.48 12.5099C82.72 12.1899 82.06 11.7399 81.49 11.1799C80.93 10.5999 80.49 9.9399 80.18 9.1699C79.87 8.3899 79.71 7.5499 79.71 6.6599ZM81.87 6.6599C81.87 7.4899 82.04 8.2299 82.39 8.8899C82.75 9.5399 83.24 10.0399 83.86 10.4099C84.48 10.7799 85.19 10.9599 85.99 10.9599C86.8 10.9599 87.51 10.7799 88.12 10.4099C88.74 10.0399 89.23 9.5299 89.57 8.8899C89.93 8.2299 90.11 7.4899 90.11 6.6599C90.11 5.8299 89.94 5.0899 89.59 4.4499C89.24 3.7899 88.76 3.2799 88.14 2.9099C87.53 2.5399 86.81 2.3599 86 2.3599C85.2 2.3599 84.5 2.5399 83.87 2.9099C83.25 3.2799 82.76 3.7899 82.4 4.4499C82.05 5.0899 81.87 5.8299 81.87 6.6599Z" fill="black"/>
<path d="M94.55 0.610107H96.59V10.8801H101.4V12.7101H94.55V0.610107Z" fill="black"/>
<path d="M101.93 6.6599C101.93 5.7599 102.09 4.9299 102.4 4.1699C102.71 3.3999 103.15 2.7399 103.71 2.1799C104.29 1.6199 104.95 1.1799 105.72 0.869902C106.48 0.559902 107.31 0.399902 108.21 0.399902C109.11 0.399902 109.94 0.559902 110.7 0.869902C111.47 1.1799 112.14 1.6199 112.7 2.1799C113.28 2.7299 113.72 3.3999 114.03 4.1699C114.34 4.9299 114.5 5.7599 114.5 6.6599C114.5 7.5599 114.34 8.3899 114.03 9.1699C113.72 9.9299 113.28 10.5999 112.72 11.1799C112.16 11.7399 111.49 12.1899 110.71 12.5099C109.95 12.8199 109.11 12.9799 108.2 12.9799C107.29 12.9799 106.45 12.8199 105.69 12.5099C104.93 12.1899 104.27 11.7399 103.7 11.1799C103.14 10.5999 102.7 9.9399 102.39 9.1699C102.09 8.3899 101.93 7.5499 101.93 6.6599ZM104.09 6.6599C104.09 7.4899 104.26 8.2299 104.61 8.8899C104.97 9.5399 105.46 10.0399 106.08 10.4099C106.7 10.7799 107.41 10.9599 108.21 10.9599C109.02 10.9599 109.73 10.7799 110.34 10.4099C110.96 10.0399 111.45 9.5299 111.79 8.8899C112.15 8.2299 112.33 7.4899 112.33 6.6599C112.33 5.8299 112.16 5.0899 111.81 4.4499C111.47 3.7899 110.98 3.2799 110.36 2.9099C109.75 2.5399 109.03 2.3599 108.22 2.3599C107.42 2.3599 106.72 2.5399 106.09 2.9099C105.47 3.2799 104.98 3.7899 104.62 4.4499C104.27 5.0899 104.09 5.8299 104.09 6.6599Z" fill="black"/>
<path d="M122.52 8.10989V6.37989H128.35C128.37 7.26989 128.26 8.10989 128 8.89989C127.75 9.67989 127.37 10.3799 126.86 10.9899C126.35 11.5999 125.73 12.0799 124.98 12.4399C124.23 12.7899 123.37 12.9599 122.4 12.9599C121.49 12.9599 120.65 12.8099 119.88 12.5099C119.11 12.1999 118.43 11.7599 117.86 11.1999C117.29 10.6399 116.86 9.96989 116.55 9.18989C116.24 8.41989 116.08 7.56989 116.08 6.64989C116.08 5.72989 116.24 4.88989 116.55 4.12989C116.87 3.35989 117.32 2.69989 117.88 2.13989C118.46 1.58989 119.13 1.15989 119.9 0.859893C120.68 0.549893 121.53 0.389893 122.44 0.389893C123.63 0.389893 124.66 0.629893 125.54 1.09989C126.42 1.56989 127.12 2.22989 127.65 3.06989L125.99 4.18989C125.66 3.60989 125.19 3.14989 124.59 2.80989C124 2.44989 123.29 2.26989 122.45 2.26989C121.67 2.26989 120.95 2.44989 120.31 2.81989C119.68 3.17989 119.17 3.67989 118.79 4.33989C118.42 4.98989 118.24 5.74989 118.24 6.63989C118.24 7.51989 118.42 8.28989 118.79 8.95989C119.16 9.61989 119.66 10.1299 120.29 10.4999C120.94 10.8699 121.66 11.0499 122.45 11.0499C123.18 11.0499 123.8 10.9199 124.32 10.6499C124.84 10.3799 125.26 10.0299 125.58 9.57989C125.9 9.12989 126.13 8.62989 126.25 8.08989H122.52V8.10989Z" fill="black"/>
<path d="M130.7 0.610107H132.76V12.7101H130.7V0.610107Z" fill="black"/>
<path d="M136.54 8.79991C136.93 9.49991 137.37 10.0699 137.87 10.4899C138.38 10.9199 138.97 11.1299 139.65 11.1299C140.21 11.1299 140.66 10.9899 141 10.6999C141.35 10.3999 141.52 10.0099 141.52 9.51991C141.52 9.06991 141.41 8.70991 141.19 8.44991C140.97 8.16991 140.67 7.93991 140.27 7.75991C139.89 7.55991 139.45 7.36991 138.94 7.18991C138.64 7.08991 138.31 6.94991 137.94 6.77991C137.57 6.60991 137.22 6.38991 136.89 6.11991C136.56 5.83991 136.28 5.49991 136.06 5.09991C135.84 4.69991 135.73 4.20991 135.73 3.64991C135.73 2.99991 135.9 2.43991 136.23 1.95991C136.56 1.45991 137.01 1.07991 137.58 0.819912C138.16 0.539912 138.81 0.409912 139.53 0.409912C140.24 0.409912 140.87 0.539912 141.4 0.789912C141.93 1.03991 142.37 1.36991 142.73 1.75991C143.1 2.14991 143.39 2.55991 143.59 2.98991L141.93 3.91991C141.68 3.47991 141.36 3.08991 140.98 2.73991C140.6 2.38991 140.1 2.21991 139.49 2.21991C138.92 2.21991 138.51 2.34991 138.25 2.61991C137.99 2.88991 137.85 3.17991 137.85 3.51991C137.85 3.98991 138.06 4.39991 138.49 4.72991C138.92 5.05991 139.62 5.39991 140.6 5.72991C141.09 5.88991 141.56 6.11991 142.04 6.41991C142.51 6.71991 142.9 7.10991 143.22 7.59991C143.53 8.06991 143.69 8.65991 143.69 9.35991C143.69 10.1099 143.49 10.7499 143.1 11.2999C142.72 11.8399 142.22 12.2599 141.61 12.5399C141 12.8299 140.35 12.9699 139.66 12.9699C138.96 12.9699 138.3 12.8299 137.69 12.5599C137.09 12.2699 136.56 11.8999 136.1 11.4399C135.65 10.9699 135.29 10.4499 135.03 9.87991L136.54 8.79991Z" fill="black"/>
<path d="M145.31 2.49011V0.610107H154.75V2.49011H151.05V12.7101H148.99V2.49011H145.31Z" fill="black"/>
<path d="M0 4.02002H1.63L4.27 8.13002L6.91 4.02002H8.54V12.71H7.01V6.48002L4.27 10.58H4.22L1.5 6.50002V12.71H0V4.02002Z" fill="black"/>
<path d="M13.18 9.28002L9.72998 4.02002H11.53L13.96 7.87002L16.42 4.02002H18.17L14.72 9.24002V12.7H13.18V9.28002Z" fill="black"/>
<path d="M30.5901 5.84009C31.8601 7.28009 33.6901 8.10009 35.6101 8.10009H38.1101V5.84009H30.5901Z" fill="black"/>
<path d="M30.5901 1.11011C31.8601 2.57011 33.7001 3.41011 35.6401 3.41011H38.9601V1.11011H30.5901Z" fill="black"/>
<path d="M30.5901 10.4102C31.8601 11.8702 33.7001 12.7102 35.6401 12.7102H38.9601V10.4102H30.5901Z" fill="black"/>
</g>
<defs>
<clipPath id="clip0">
<rect width="154.75" height="13.31" fill="white"/>
</clipPath>
</defs>
</svg>
