<svg width="162" height="14" viewBox="0 0 162 14" fill="none" xmlns="http://www.w3.org/2000/svg">
<g clip-path="url(#clip0)">
<path d="M16.9 1.11H28.34V2.99H24.64V12.71H22.58V2.99H20.03C18.72 2.99 17.52 2.26 16.9 1.11ZM42.33 4.41C42.71 3.76 43.21 3.27 43.83 2.92C44.46 2.56 45.15 2.38 45.89 2.38C46.74 2.38 47.48 2.55 48.1 2.88C48.73 3.2 49.26 3.61 49.67 4.11V1.68C49.17 1.27 48.63 0.95 48.03 0.73C47.44 0.51 46.7 0.4 45.82 0.4C44.93 0.4 44.11 0.56 43.35 0.87C42.59 1.17 41.92 1.6 41.34 2.15C40.78 2.7 40.33 3.37 40.01 4.14C39.7 4.9 39.54 5.74 39.54 6.66C39.54 7.58 39.7 8.43 40.01 9.2C40.33 9.96 40.78 10.62 41.34 11.17C41.92 11.72 42.58 12.16 43.35 12.47C44.11 12.77 44.93 12.92 45.82 12.92C46.71 12.92 47.44 12.81 48.03 12.59C48.63 12.37 49.18 12.05 49.67 11.64V9.2C49.26 9.7 48.73 10.11 48.1 10.44C47.48 10.76 46.74 10.92 45.89 10.92C45.15 10.92 44.47 10.75 43.83 10.4C43.21 10.04 42.71 9.54 42.33 8.9C41.95 8.25 41.76 7.51 41.76 6.65C41.76 5.79 41.95 5.04 42.33 4.41ZM52.47 12.71H54.51V7.16H60.6V12.71H62.64V0.61H60.6V5.28H54.51V0.61H52.47V12.71V12.71ZM74.44 8.73L65.6 0V12.71H67.61V4.58L76.44 13.31V0.61H74.43V8.73H74.44ZM79.18 9.16C79.49 9.92 79.93 10.59 80.49 11.17C81.05 11.73 81.72 12.18 82.48 12.5C83.24 12.81 84.08 12.97 84.99 12.97C85.9 12.97 86.74 12.81 87.5 12.5C88.27 12.18 88.94 11.73 89.51 11.17C90.07 10.59 90.51 9.93 90.82 9.16C91.13 8.39 91.29 7.55 91.29 6.65C91.29 5.75 91.13 4.92 90.82 4.16C90.51 3.39 90.07 2.73 89.49 2.17C88.93 1.61 88.26 1.17 87.48 0.86C86.72 0.55 85.89 0.39 84.99 0.39C84.09 0.39 83.26 0.55 82.5 0.86C81.74 1.17 81.07 1.61 80.49 2.17C79.93 2.72 79.49 3.39 79.18 4.16C78.87 4.92 78.71 5.75 78.71 6.65C78.71 7.55 78.87 8.39 79.18 9.16ZM81.39 4.44C81.75 3.78 82.24 3.27 82.86 2.9C83.48 2.53 84.19 2.35 84.99 2.35C85.81 2.35 86.52 2.53 87.13 2.9C87.75 3.27 88.24 3.78 88.58 4.44C88.93 5.09 89.1 5.82 89.1 6.65C89.1 7.48 88.92 8.22 88.56 8.88C88.21 9.53 87.73 10.03 87.11 10.4C86.5 10.77 85.79 10.95 84.98 10.95C84.18 10.95 83.48 10.77 82.85 10.4C82.23 10.03 81.74 9.52 81.38 8.88C81.03 8.22 80.86 7.48 80.86 6.65C80.87 5.83 81.05 5.09 81.39 4.44ZM93.05 12.71H99.9V10.88H95.09V0.61H93.05V12.71V12.71ZM100.9 9.16C101.21 9.92 101.65 10.59 102.21 11.17C102.77 11.73 103.44 12.18 104.2 12.5C104.96 12.81 105.8 12.97 106.71 12.97C107.62 12.97 108.46 12.81 109.22 12.5C109.99 12.18 110.66 11.73 111.23 11.17C111.79 10.59 112.23 9.93 112.54 9.16C112.85 8.39 113.01 7.55 113.01 6.65C113.01 5.75 112.85 4.92 112.54 4.16C112.23 3.39 111.79 2.73 111.21 2.17C110.65 1.61 109.98 1.17 109.21 0.86C108.45 0.55 107.62 0.39 106.72 0.39C105.82 0.39 104.99 0.55 104.23 0.86C103.47 1.17 102.8 1.61 102.22 2.17C101.66 2.72 101.22 3.39 100.91 4.16C100.6 4.92 100.44 5.75 100.44 6.65C100.43 7.55 100.59 8.39 100.9 9.16ZM103.11 4.44C103.47 3.78 103.96 3.27 104.58 2.9C105.2 2.53 105.91 2.35 106.71 2.35C107.53 2.35 108.24 2.53 108.85 2.9C109.47 3.27 109.96 3.78 110.3 4.44C110.65 5.09 110.82 5.82 110.82 6.65C110.82 7.48 110.64 8.22 110.28 8.88C109.93 9.53 109.45 10.03 108.83 10.4C108.22 10.77 107.51 10.95 106.7 10.95C105.9 10.95 105.2 10.77 104.57 10.4C103.95 10.03 103.46 9.52 103.1 8.88C102.75 8.22 102.58 7.48 102.58 6.65C102.59 5.83 102.77 5.09 103.11 4.44ZM124.74 8.11C124.61 8.65 124.39 9.15 124.07 9.6C123.75 10.05 123.33 10.41 122.81 10.67C122.29 10.94 121.67 11.07 120.94 11.07C120.15 11.07 119.43 10.89 118.78 10.52C118.15 10.15 117.64 9.64 117.28 8.98C116.91 8.31 116.73 7.54 116.73 6.66C116.73 5.77 116.91 5.01 117.28 4.36C117.66 3.7 118.17 3.2 118.8 2.84C119.45 2.47 120.16 2.29 120.94 2.29C121.78 2.29 122.5 2.47 123.08 2.83C123.68 3.18 124.15 3.64 124.48 4.21L126.14 3.09C125.61 2.25 124.91 1.59 124.03 1.12C123.15 0.65 122.12 0.41 120.93 0.41C120.02 0.41 119.17 0.57 118.39 0.88C117.62 1.18 116.94 1.61 116.37 2.16C115.81 2.71 115.36 3.38 115.04 4.15C114.73 4.91 114.57 5.75 114.57 6.67C114.57 7.59 114.73 8.44 115.04 9.21C115.35 9.98 115.79 10.65 116.35 11.22C116.93 11.78 117.6 12.22 118.37 12.53C119.14 12.83 119.98 12.98 120.89 12.98C121.86 12.98 122.72 12.81 123.47 12.46C124.22 12.1 124.85 11.62 125.35 11.01C125.86 10.4 126.24 9.7 126.49 8.92C126.74 8.12 126.86 7.28 126.84 6.4H121.01V8.13H124.74V8.11ZM128.7 12.71H130.76V0.61H128.7V12.71ZM132.52 9.87C132.78 10.43 133.14 10.95 133.59 11.43C134.05 11.89 134.58 12.27 135.18 12.55C135.79 12.83 136.45 12.96 137.15 12.96C137.84 12.96 138.49 12.82 139.1 12.53C139.71 12.24 140.21 11.83 140.59 11.29C140.98 10.75 141.18 10.1 141.18 9.35C141.18 8.65 141.02 8.06 140.71 7.59C140.4 7.11 140.01 6.71 139.53 6.41C139.06 6.11 138.58 5.88 138.09 5.72C137.11 5.39 136.41 5.05 135.98 4.72C135.55 4.39 135.34 3.98 135.34 3.51C135.34 3.18 135.47 2.88 135.74 2.61C136 2.34 136.42 2.21 136.98 2.21C137.59 2.21 138.09 2.38 138.47 2.73C138.85 3.08 139.17 3.47 139.42 3.91L141.08 2.98C140.87 2.55 140.58 2.14 140.22 1.75C139.86 1.36 139.42 1.04 138.89 0.78C138.36 0.52 137.74 0.4 137.02 0.4C136.29 0.4 135.64 0.54 135.07 0.81C134.5 1.08 134.06 1.46 133.72 1.95C133.39 2.43 133.22 3 133.22 3.64C133.22 4.2 133.33 4.69 133.55 5.09C133.77 5.49 134.05 5.83 134.38 6.11C134.71 6.38 135.07 6.59 135.43 6.77C135.8 6.94 136.13 7.08 136.43 7.18C136.94 7.36 137.38 7.55 137.76 7.75C138.15 7.93 138.46 8.16 138.68 8.44C138.9 8.71 139.01 9.06 139.01 9.51C139.01 9.99 138.84 10.39 138.49 10.69C138.16 10.98 137.71 11.12 137.14 11.12C136.46 11.12 135.87 10.91 135.36 10.48C134.86 10.05 134.42 9.49 134.03 8.79L132.52 9.87ZM152.45 9.87C152.71 10.43 153.07 10.95 153.52 11.43C153.98 11.89 154.51 12.27 155.11 12.55C155.72 12.83 156.38 12.96 157.08 12.96C157.77 12.96 158.42 12.82 159.03 12.53C159.64 12.24 160.14 11.83 160.52 11.29C160.91 10.75 161.11 10.1 161.11 9.35C161.11 8.65 160.95 8.06 160.64 7.59C160.33 7.11 159.94 6.71 159.46 6.41C158.99 6.11 158.51 5.88 158.02 5.72C157.04 5.39 156.34 5.05 155.91 4.72C155.48 4.39 155.27 3.98 155.27 3.51C155.27 3.18 155.4 2.88 155.67 2.61C155.94 2.34 156.35 2.21 156.92 2.21C157.53 2.21 158.03 2.38 158.41 2.73C158.79 3.08 159.11 3.47 159.36 3.91L161.02 2.98C160.81 2.55 160.52 2.14 160.16 1.75C159.8 1.36 159.36 1.04 158.83 0.78C158.3 0.52 157.68 0.4 156.96 0.4C156.23 0.4 155.58 0.54 155.01 0.81C154.44 1.08 154 1.46 153.66 1.95C153.32 2.43 153.16 3 153.16 3.64C153.16 4.2 153.27 4.69 153.49 5.09C153.71 5.49 153.98 5.83 154.32 6.11C154.66 6.38 155.01 6.59 155.38 6.77C155.75 6.94 156.08 7.08 156.38 7.18C156.89 7.36 157.33 7.55 157.71 7.75C158.1 7.93 158.41 8.16 158.63 8.44C158.85 8.71 158.96 9.06 158.96 9.51C158.96 9.99 158.79 10.39 158.44 10.69C158.11 10.98 157.66 11.12 157.09 11.12C156.41 11.12 155.82 10.91 155.31 10.48C154.81 10.05 154.37 9.49 153.98 8.79L152.45 9.87ZM144.94 2.49H145.99V12.71H148.05V2.49H151.75V0.61H141.81C142.42 1.76 143.63 2.49 144.94 2.49ZM0 12.71H1.5V6.5L4.22 10.57H4.27L7.01 6.47V12.7H8.54V4.02H6.91L4.27 8.13L1.63 4.02H0V12.71ZM13.18 12.71H14.72V9.24L18.17 4.02H16.42L13.96 7.87L11.53 4.02H9.73L13.18 9.28V12.71V12.71ZM29.59 5.84C30.86 7.28 32.19 8.1 34.11 8.1C34.86 8.1 37.11 8.1 37.11 8.1V5.84H29.59ZM29.59 1.11C30.86 2.57 32.2 3.41 34.14 3.41C35.09 3.41 37.96 3.41 37.96 3.41V1.11H29.59V1.11ZM29.59 10.41C30.86 11.87 32.2 12.71 34.14 12.71C35.09 12.71 37.96 12.71 37.96 12.71V10.41H29.59Z" fill="black"/>
</g>
<defs>
<clipPath id="clip0">
<rect width="161.11" height="13.31" fill="white"/>
</clipPath>
</defs>
</svg>
